<?xml version="1.0" encoding="utf-8"?>
<!-- Generator: Adobe Illustrator 28.0.0, SVG Export Plug-In . SVG Version: 6.00 Build 0)  -->
<svg version="1.1" id="Layer_1" xmlns="http://www.w3.org/2000/svg" xmlns:xlink="http://www.w3.org/1999/xlink" x="0px" y="0px"
	 viewBox="0 0 612 293.51" style="enable-background:new 0 0 612 293.51;" xml:space="preserve">
<style type="text/css">
	.st0{fill:#0CB5C9;}
</style>
<g>
	<g>
		<polygon class="st0" points="191.11,162.39 276.84,13.21 329.91,104.5 286.86,104.5 276.84,86.05 233.42,162.39 		"/>
		<polygon class="st0" points="276.54,116.56 256.87,149.78 371.16,149.78 378.59,162.39 420.89,162.39 334.8,13.21 292.5,13.21 
			352.61,116.28 		"/>
	</g>
	<g>
		<path d="M61.23,199.39l21.09,79.67H65.59l-3.68-16.85H40.7l-3.68,16.85H20.28l21.09-79.67H61.23z M59.11,249.05l-7.7-35.82h-0.22
			l-7.7,35.82H59.11z"/>
		<path d="M128.41,212.56H111v66.51H94.94v-66.51H77.53v-13.17h50.88V212.56z"/>
		<path d="M135.33,199.39h16.07v66.51h28.45v13.17h-44.52V199.39z"/>
		<path d="M231.52,212.56h-28.45v18.75h26.78v13.17h-26.78v21.42h29.57v13.17h-45.64v-79.67h44.52V212.56z"/>
		<path d="M287.31,212.56H269.9v66.51h-16.07v-66.51h-17.41v-13.17h50.88V212.56z"/>
		<path d="M335.41,256.75c0,8.48-1.97,14.53-5.92,18.13c-3.94,3.61-9.97,5.41-18.08,5.41c-4.24,0-7.72-0.58-10.43-1.73
			c-2.72-1.15-4.87-2.79-6.47-4.91c-1.6-2.12-2.7-4.59-3.29-7.42c-0.6-2.83-0.89-5.8-0.89-8.93v-3.46h14.73v2.46
			c0,4.24,0.46,7.38,1.4,9.43c0.93,2.04,2.84,3.07,5.75,3.07s4.82-1.02,5.75-3.07c0.93-2.05,1.4-5.19,1.4-9.43v-56.91h16.07V256.75z
			"/>
		<path d="M381.27,199.39l21.09,79.67h-16.74l-3.68-16.85h-21.2l-3.68,16.85h-16.74l21.09-79.67H381.27z M379.15,249.05l-7.7-35.82
			h-0.22l-7.7,35.82H379.15z"/>
		<path d="M435.5,228.61h16.07v50.46H435.5V228.61z"/>
		<path class="st0" d="M435.5,199.39h16.07v16.07H435.5V199.39z"/>
		<path d="M487.72,199.39l11.38,56.24h0.22l11.49-56.24h23.77v79.67h-14.73v-63.6h-0.22l-14.17,63.6h-12.5l-14.17-63.6h-0.22v63.6
			h-14.73v-79.67H487.72z"/>
		<path d="M590.6,212.56h-28.45v18.75h26.78v13.17h-26.78v21.42h29.57v13.17h-45.64v-79.67h44.52V212.56z"/>
	</g>
</g>
</svg>
